# xmcd
#
# Track frame offsets: 
#        150
#        23094
#        52387
#        70391
#        91428
#        111594
#        127214
#        151759
#        178504
#        204690
#        218322
#        241225
#        265424
#        287986
#        321653
#
# Disc length: 4325 seconds
#
# Revision: 1
# Processed by: cddbd v1.5.2PL0 Copyright (c) Steve Scherf et al.
# Submitted via: ExactAudioCopy v1.0b3
#
DISCID=ee10e30f
DTITLE=Teddy Pendergrass - Playlist: The Very Best of Teddy Pendergras
DTITLE=s
DYEAR=2009
DGENRE=R&B
TTITLE0=Only You
TTITLE1=Bad Luck
TTITLE2=I Don't Love You Anymore
TTITLE3=Do Me
TTITLE4=The Whole Town's Laughing at Me
TTITLE5=If You Don't Know Me By Now
TTITLE6=Close the Door
TTITLE7=Turn Off the Lights
TTITLE8=Come Go with Me
TTITLE9=I Can't Live Without Your Love
TTITLE10=Can't We Try
TTITLE11=You're My Latest, My Great Inspiration
TTITLE12=Love T.K.O.
TTITLE13=When Somebody Loves You Back
TTITLE14=Data
EXTD=
EXTT0=
EXTT1=
EXTT2=
EXTT3=
EXTT4=
EXTT5=
EXTT6=
EXTT7=
EXTT8=
EXTT9=
EXTT10=
EXTT11=
EXTT12=
EXTT13=
EXTT14=
PLAYORDER=
